
<svg xmlns="http://www.w3.org/2000/svg" xmlns:xlink="http://www.w3.org/1999/xlink" preserveAspectRatio="xMidYMid meet" version="1.0" viewBox="0.0 0.0 323.3 325.2" zoomAndPan="magnify" style="fill: rgb(0, 0, 0);" original_string_length="7767"><g id="__id74_sn0tvqo1rg"><path d="M228.31,36.39c0.14,0.54-0.19,1.08-0.72,1.22l-11.64,2.98c-0.08,0.02-0.17,0.03-0.25,0.03 c-0.45,0-0.85-0.3-0.97-0.75c-0.14-0.54,0.19-1.08,0.72-1.22l11.64-2.98C227.63,35.53,228.17,35.85,228.31,36.39z M175.39,30.92 c-0.07-0.55-0.58-0.93-1.12-0.86l-19.69,2.65c-0.55,0.07-0.93,0.58-0.86,1.12c0.07,0.5,0.5,0.87,0.99,0.87c0.04,0,0.09,0,0.13-0.01 l19.69-2.65C175.08,31.97,175.47,31.47,175.39,30.92z M272.01,88.98c-0.48-0.28-1.09-0.12-1.37,0.35l-6.12,10.34 c-0.28,0.48-0.12,1.09,0.35,1.37c0.16,0.09,0.33,0.14,0.51,0.14c0.34,0,0.67-0.17,0.86-0.49l6.12-10.34 C272.64,89.88,272.48,89.26,272.01,88.98z M222.53,58.71c0.19,0.32,0.52,0.49,0.86,0.49c0.17,0,0.35-0.04,0.51-0.14l10.34-6.12 c0.48-0.28,0.63-0.89,0.35-1.37c-0.28-0.48-0.9-0.63-1.37-0.35l-10.34,6.12C222.41,57.62,222.25,58.23,222.53,58.71z M186.06,136.54 l-10.82,10.82c-0.39,0.39-0.39,1.02,0,1.41c0.2,0.2,0.45,0.29,0.71,0.29s0.51-0.1,0.71-0.29l10.82-10.82c0.39-0.39,0.39-1.02,0-1.41 S186.46,136.15,186.06,136.54z M229.33,122.72l-12.05,15.8c-0.33,0.44-0.25,1.07,0.19,1.4c0.18,0.14,0.39,0.21,0.61,0.21 c0.3,0,0.6-0.14,0.8-0.39l12.05-15.8c0.33-0.44,0.25-1.07-0.19-1.4C230.29,122.19,229.66,122.28,229.33,122.72z M185.5,106.74 l15.8-12.05c0.44-0.33,0.52-0.96,0.19-1.4c-0.34-0.44-0.96-0.53-1.4-0.19l-15.8,12.05c-0.44,0.33-0.52,0.96-0.19,1.4 c0.2,0.26,0.49,0.39,0.8,0.39C185.11,106.95,185.32,106.88,185.5,106.74z M287.19,95.27c-0.53-0.14-1.08,0.19-1.22,0.72l-2.98,11.64 c-0.14,0.54,0.19,1.08,0.72,1.22c0.08,0.02,0.17,0.03,0.25,0.03c0.45,0,0.85-0.3,0.97-0.75l2.98-11.64 C288.04,95.95,287.72,95.4,287.19,95.27z M293.28,148.18c-0.55-0.08-1.05,0.31-1.12,0.86l-2.65,19.69 c-0.07,0.55,0.31,1.05,0.86,1.12c0.05,0.01,0.09,0.01,0.13,0.01c0.49,0,0.92-0.36,0.99-0.87l2.65-19.69 C294.21,148.76,293.83,148.25,293.28,148.18z M314.71,9.39v222.98c0,0.41-0.34,0.75-0.75,0.75s-0.75-0.34-0.75-0.75v-26.76 c-0.15-0.17-0.25-0.4-0.25-0.64v-15.3c0-0.25,0.1-0.47,0.25-0.64v-7.86l-19.79-41.47l9.04-67.25c-1.35-0.24-2.68-0.52-3.99-0.84 l-11.2,54.11c-0.1,0.47-0.51,0.8-0.98,0.8c-0.07,0-0.14-0.01-0.2-0.02c-0.54-0.11-0.89-0.64-0.78-1.18l11.22-54.21 c-0.63-0.18-1.28-0.37-1.96-0.59l-4.47,17.45c-0.12,0.45-0.52,0.75-0.97,0.75c-0.08,0-0.17-0.01-0.25-0.03 c-0.54-0.14-0.86-0.68-0.72-1.22l4.51-17.59c-2.24-0.79-4.45-1.7-6.57-2.72l-9.25,15.63c-0.19,0.32-0.52,0.49-0.86,0.49 c-0.17,0-0.35-0.04-0.51-0.14c-0.48-0.28-0.63-0.89-0.35-1.37l9.18-15.51c-0.6-0.32-1.2-0.64-1.8-0.98l-30.4,46.27 c-0.19,0.29-0.51,0.45-0.84,0.45c-0.19,0-0.38-0.05-0.55-0.16c-0.46-0.3-0.59-0.92-0.29-1.38l30.35-46.19 c-0.98-0.6-1.95-1.22-2.9-1.87l-41.23,54.04l-0.28,0.1l-44.68,15.81l15.91-44.96l53.95-41.16c-0.78-1.12-1.52-2.26-2.22-3.42 l-46.19,30.35c-0.17,0.11-0.36,0.16-0.55,0.16c-0.33,0-0.64-0.16-0.84-0.45c-0.3-0.46-0.17-1.08,0.29-1.38l46.27-30.4 c-0.34-0.6-0.66-1.2-0.98-1.8l-15.51,9.18c-0.16,0.09-0.33,0.14-0.51,0.14c-0.34,0-0.67-0.17-0.86-0.49 c-0.28-0.48-0.12-1.09,0.35-1.37l15.63-9.25c-1.02-2.13-1.94-4.33-2.72-6.57l-17.59,4.51c-0.08,0.02-0.17,0.03-0.25,0.03 c-0.45,0-0.85-0.3-0.97-0.75c-0.14-0.54,0.19-1.08,0.72-1.22l17.45-4.47c-0.22-0.68-0.41-1.33-0.59-1.96l-54.21,11.22 c-0.07,0.01-0.14,0.02-0.2,0.02c-0.46,0-0.88-0.33-0.98-0.8c-0.11-0.54,0.24-1.07,0.78-1.18l54.11-11.2 c-0.26-1.09-0.51-2.21-0.72-3.38l-67.36,9.06l-0.27-0.13l-42.77-20.42l0.22-0.1h-6.16c0,0.03,0.01,0.07,0.01,0.1c0,0.55-0.45,1-1,1 h-15.3c-0.55,0-1-0.45-1-1c0-0.04,0.01-0.07,0.01-0.1H93.01c-0.41,0-0.75-0.34-0.75-0.75s0.34-0.75,0.75-0.75h220.94 C314.37,8.64,314.71,8.98,314.71,9.39z M250.89,19.76c-0.05-0.33-0.09-0.66-0.14-1c-0.05-0.35-0.1-0.7-0.14-1.05 c-0.07-0.54-0.12-1.08-0.17-1.61c-0.03-0.33-0.07-0.66-0.1-1c-0.05-0.59-0.08-1.17-0.12-1.76c-0.02-0.28-0.04-0.56-0.05-0.84 c-0.03-0.79-0.05-1.58-0.05-2.37H145.7l-0.22,0.1l38.72,18.48L250.89,19.76z M276.23,61.25c-0.24-0.18-0.48-0.36-0.72-0.55 c-0.29-0.22-0.58-0.43-0.86-0.65c-0.4-0.31-0.8-0.63-1.19-0.96c-0.26-0.21-0.52-0.42-0.77-0.63c-0.43-0.37-0.86-0.74-1.28-1.12 c-0.2-0.18-0.41-0.36-0.61-0.54c-0.62-0.56-1.23-1.14-1.82-1.73c0,0-0.01-0.01-0.01-0.01c-0.6-0.59-1.18-1.2-1.75-1.81 c-0.19-0.21-0.38-0.42-0.57-0.63c-0.37-0.41-0.75-0.83-1.11-1.25c-0.22-0.26-0.44-0.52-0.65-0.78c-0.32-0.39-0.64-0.77-0.96-1.17 c-0.23-0.28-0.45-0.57-0.67-0.86c-0.18-0.24-0.37-0.47-0.56-0.72l-53.42,40.76l-14.31,40.45l40.45-14.31L276.23,61.25z M303.73,70.65c3.16,0.51,6.32,0.77,9.48,0.79v-61.3h-61.09c0.01,3.39,0.32,6.86,0.91,10.31c0.31,1.82,0.69,3.56,1.11,5.18 c0.31,1.17,0.68,2.41,1.14,3.77c0.92,2.76,2.04,5.46,3.33,8.03c0.58,1.16,1.21,2.33,1.88,3.46c0.99,1.69,2.07,3.36,3.22,4.95l0,0 c2.57,3.57,5.51,6.84,8.76,9.77c1.19,1.07,2.41,2.1,3.69,3.08c0.68,0.52,1.37,1.03,2.07,1.53c1.44,1.02,2.94,1.98,4.46,2.87 c1.14,0.66,2.3,1.3,3.46,1.88c2.57,1.29,5.27,2.41,8.03,3.33c1.37,0.46,2.6,0.83,3.77,1.13C299.82,69.92,301.76,70.33,303.73,70.65z M313.21,176.52V73.45c-0.27-0.01-0.54-0.01-0.81-0.02c-0.34-0.01-0.68-0.01-1.01-0.02c-0.41-0.01-0.82-0.04-1.23-0.06 c-0.43-0.02-0.86-0.05-1.29-0.08c-0.37-0.03-0.73-0.06-1.1-0.1c-0.47-0.04-0.93-0.09-1.4-0.14c-0.36-0.04-0.72-0.09-1.08-0.14 c-0.29-0.04-0.57-0.07-0.86-0.11l-8.95,66.59L313.21,176.52z M322.52,0H84.45c-0.41,0-0.75,0.34-0.75,0.75s0.34,0.75,0.75,0.75 h237.32v239.51c0,0.41,0.34,0.75,0.75,0.75s0.75-0.34,0.75-0.75V0.75C323.27,0.34,322.93,0,322.52,0z M322.52,255.1 c-0.41,0-0.75,0.34-0.75,0.75v5c0,0.41,0.34,0.75,0.75,0.75s0.75-0.34,0.75-0.75v-5C323.27,255.44,322.93,255.1,322.52,255.1z M322.52,267.66c-0.41,0-0.75,0.34-0.75,0.75v9.45c0,0.41,0.34,0.75,0.75,0.75s0.75-0.34,0.75-0.75v-9.45 C323.27,268,322.93,267.66,322.52,267.66z M322.52,284.67c-0.41,0-0.75,0.34-0.75,0.75v9.45c0,0.41,0.34,0.75,0.75,0.75 s0.75-0.34,0.75-0.75v-9.45C323.27,285,322.93,284.67,322.52,284.67z M322.52,301.67c-0.41,0-0.75,0.34-0.75,0.75v9.45 c0,0.41,0.34,0.75,0.75,0.75s0.75-0.34,0.75-0.75v-9.45C323.27,302.01,322.93,301.67,322.52,301.67z M322.52,318.68 c-0.41,0-0.75,0.34-0.75,0.75v5c0,0.41,0.34,0.75,0.75,0.75s0.75-0.34,0.75-0.75v-5C323.27,319.01,322.93,318.68,322.52,318.68z M69,0h-5c-0.41,0-0.75,0.34-0.75,0.75S63.58,1.5,64,1.5h5c0.41,0,0.75-0.34,0.75-0.75S69.41,0,69,0z M30.18,1.5h9.4 c0.41,0,0.75-0.34,0.75-0.75S39.99,0,39.57,0h-9.4c-0.41,0-0.75,0.34-0.75,0.75S29.76,1.5,30.18,1.5z M57.23,0.75 C57.23,0.34,56.9,0,56.48,0h-9.4c-0.41,0-0.75,0.34-0.75,0.75s0.34,0.75,0.75,0.75h9.4C56.9,1.5,57.23,1.16,57.23,0.75z M22.66,0 h-9.4c-0.41,0-0.75,0.34-0.75,0.75s0.34,0.75,0.75,0.75h9.4c0.41,0,0.75-0.34,0.75-0.75S23.08,0,22.66,0z M5.75,0h-5 C0.34,0,0,0.34,0,0.75S0.34,1.5,0.75,1.5h5c0.41,0,0.75-0.34,0.75-0.75S6.16,0,5.75,0z M313.96,290.95c-0.41,0-0.75,0.34-0.75,0.75 v2.68c0,0.41,0.34,0.75,0.75,0.75s0.75-0.34,0.75-0.75v-2.68C314.71,291.29,314.37,290.95,313.96,290.95z M313.96,254.95 c-0.41,0-0.75,0.34-0.75,0.75v10c0,0.41,0.34,0.75,0.75,0.75s0.75-0.34,0.75-0.75v-10C314.71,255.29,314.37,254.95,313.96,254.95z M313.96,236.95c-0.41,0-0.75,0.34-0.75,0.75v10c0,0.41,0.34,0.75,0.75,0.75s0.75-0.34,0.75-0.75v-10 C314.71,237.29,314.37,236.95,313.96,236.95z M313.96,272.95c-0.41,0-0.75,0.34-0.75,0.75v10c0,0.41,0.34,0.75,0.75,0.75 s0.75-0.34,0.75-0.75v-10C314.71,273.29,314.37,272.95,313.96,272.95z M49.24,8.64h-10c-0.41,0-0.75,0.34-0.75,0.75 s0.34,0.75,0.75,0.75h10c0.41,0,0.75-0.34,0.75-0.75S49.65,8.64,49.24,8.64z M67.24,8.64h-10c-0.41,0-0.75,0.34-0.75,0.75 s0.34,0.75,0.75,0.75h10c0.41,0,0.75-0.34,0.75-0.75S67.65,8.64,67.24,8.64z M85.24,8.64h-10c-0.41,0-0.75,0.34-0.75,0.75 s0.34,0.75,0.75,0.75h10c0.41,0,0.75-0.34,0.75-0.75S85.65,8.64,85.24,8.64z M31.24,8.64h-2.68c-0.41,0-0.75,0.34-0.75,0.75 s0.34,0.75,0.75,0.75h2.68c0.41,0,0.75-0.34,0.75-0.75S31.65,8.64,31.24,8.64z" style="fill: rgb(196, 188, 7);"/></g></svg>